<svg data-name="Layer 1" xmlns="http://www.w3.org/2000/svg" viewBox="0 0 1920 1080"><defs><linearGradient id="a" x1="961.95" y1="599.93" x2="961.95" y2="1079.5" gradientUnits="userSpaceOnUse"><stop offset="0" stop-color="#2c3e51" stop-opacity=".5"/><stop offset="1" stop-color="#112d40"/></linearGradient></defs><path d="M1678 614.77l-308.91 363.42a31.9 31.9 0 0 1-50.69 4.26L998.74 674.26a31.91 31.91 0 0 0-46-1.49L648.22 994.09a31.9 31.9 0 0 1-47.83-3.69L250.86 662a31.91 31.91 0 0 0-50.17-1.14l-374.3 366.46c-17.11 20.81-2.31 52.16 24.64 52.16h2221.85c25.87 0 41-29.19 26-50.32L1731 613.41a31.9 31.9 0 0 0-53 1.36z" opacity=".5" fill="url(#a)"/></svg>