<svg data-name="Layer 1" xmlns="http://www.w3.org/2000/svg" viewBox="0 0 1920 1080"><defs><linearGradient id="a" x1="973" y1="403.5" x2="973" y2="1079.5" gradientUnits="userSpaceOnUse"><stop offset="0" stop-color="#2c3e51" stop-opacity=".5"/><stop offset="1" stop-color="#112d40"/></linearGradient></defs><path opacity=".5" fill="url(#a)" d="M1597.5 403.5l-360.95 570.29L899.5 598.5 618.21 873.52 342.5 505.5l-472 574h2205l-478-676z"/><path d="M399.5 1082.5L359 974l48-160-65-146 .5-162.5 437 574-380 3zM900 599l12 119 67.37 95.4L994 909l67 55 14 158 282.5-3.5L900 599zm696-196l22 121 51 61-14 107 74 95-20 193-127 143 514.5-15.5L1596 403z" fill="#2c3e51" opacity=".31"/><path fill="#fff" opacity=".4" d="M342 505l-71.58 88.16L297 582l15 17 25-22 24 27 14-17 37.55 12L342 505z"/></svg>