<svg xmlns="http://www.w3.org/2000/svg" viewBox="0 0 414 119"><path d="M62 44.64a15.2 15.2 0 0 1 9.79 3.57l3.61-4.29a20.85 20.85 0 1 0 0 31.92l-3.61-4.3A15.23 15.23 0 1 1 62 44.64zm115.38-4.41h-11.22a2.81 2.81 0 0 0-2.81 2.77v33.72a2.81 2.81 0 0 0 2.81 2.81h11.22a19.65 19.65 0 1 0 0-39.3zm0 33.68H169V45.85h8.42a14 14 0 1 1 0 28.06zM212.23 43v33.72a2.81 2.81 0 0 0 2.77 2.81h23.39v-5.62h-20.54V62.69h13.09v-5.62h-13.09V45.85h20.58v-5.62H215a2.81 2.81 0 0 0-2.77 2.77zm84.97 0v33.72a2.8 2.8 0 0 0 2.8 2.81h23.39v-5.62h-20.58V62.69h13.1v-5.62h-13.1V45.85h20.58v-5.62H300a2.8 2.8 0 0 0-2.8 2.77zm-26.72-2.77h-12.16a2.81 2.81 0 0 0-2.81 2.77v36.53h5.62V62.69h9.35a11.23 11.23 0 0 0 0-22.46zm0 16.84h-9.35V45.85h9.35a5.61 5.61 0 1 1 0 11.22zm96.8-16.84V69l-23.11-27.76a2.81 2.81 0 0 0-5 1.8v36.49h5.61V50.79l23.11 27.73a2.81 2.81 0 0 0 2.15 1 2.9 2.9 0 0 0 1-.17 2.81 2.81 0 0 0 1.85-2.64V40.23zM147.4 50.31a1.7 1.7 0 0 0 0-.22v-.12a1.46 1.46 0 0 0-.07-.19.61.61 0 0 0-.05-.12l-.09-.17a.5.5 0 0 0-.08-.12c0-.06-.07-.11-.1-.16l-.09-.11-.13-.14-.1-.1-.15-.12-.12-.09-27.48-18.28a2.61 2.61 0 0 0-2.86 0L88.71 48.62l-.11.09-.15.12-.1.1a.86.86 0 0 0-.13.14l-.09.11-.11.16a1.27 1.27 0 0 0-.07.12l-.09.17-.06.12-.1.25a.56.56 0 0 0 0 .12v.22a.43.43 0 0 1 0 .11v18.89a.43.43 0 0 1 0 .11v.21a.5.5 0 0 0 0 .13l.06.19.06.12.09.17.07.12.11.16.09.11.13.14.1.1.15.12.11.09 27.37 18.25a2.59 2.59 0 0 0 2.86 0l27.4-18.22.12-.09.15-.12.1-.1.13-.14.09-.11s.07-.1.1-.16l.08-.12.09-.17a.61.61 0 0 0 .05-.12 1.46 1.46 0 0 0 .07-.19v-.13a1.55 1.55 0 0 0 0-.21V50.42zM117.51 66l-9.1-6.09 9.1-6.09 9.1 6.09zm-2.57-16.65l-11.16 7.46-9-6 20.16-13.44zM99.15 59.88l-6.43 4.31v-8.62zm4.63 3.1l11.16 7.46v12L94.78 69zm16.3 7.46L131.24 63l9 6-20.16 13.44zm15.79-10.56l6.43-4.31v8.62zm-4.63-3.1l-11.16-7.46v-12l20.16 13.44z" fill="#8aaed3"/></svg>