<svg xmlns="http://www.w3.org/2000/svg" viewBox="0 0 300 300"><g fill="#fff"><path d="M151.09 48.28a105.16 105.16 0 0 0-33.25 204.93c5.26 1 7.19-2.28 7.19-5.05 0-2.51-.1-10.8-.14-19.58-29.26 6.36-35.43-12.41-35.43-12.41-4.78-12.17-11.68-15.39-11.68-15.39-9.54-6.52.72-6.39.72-6.39 10.56.74 16.12 10.84 16.12 10.84 9.38 16.07 24.6 11.43 30.6 8.74 1-6.79 3.67-11.44 6.68-14.06-23.36-2.66-47.91-11.68-47.91-52a40.7 40.7 0 0 1 10.83-28.22c-1.09-2.65-4.69-13.35 1-27.83 0 0 8.83-2.83 28.93 10.78a99.69 99.69 0 0 1 52.66 0c20.07-13.61 28.89-10.78 28.89-10.78 5.72 14.48 2.12 25.18 1 27.83a40.61 40.61 0 0 1 10.82 28.22c0 40.39-24.6 49.28-48 51.89 3.77 3.26 7.13 9.66 7.13 19.47 0 14.07-.12 25.39-.12 28.86 0 2.79 1.89 6.07 7.22 5a105.17 105.17 0 0 0-33.3-204.92z" fill-rule="evenodd"/><path d="M85.76 199.26c-.23.52-1.05.68-1.8.32s-1.19-1.06-.96-1.58 1-.69 1.81-.33 1.2 1.06.94 1.59zM90 204c-.5.46-1.48.25-2.15-.49a1.61 1.61 0 0 1-.31-2.18c.52-.47 1.47-.25 2.16.48s.82 1.72.3 2.19zm4.17 6.06c-.65.45-1.7 0-2.35-.9s-.65-2.06 0-2.51 1.69 0 2.35.88.64 2.08 0 2.53zm5.68 5.86c-.58.63-1.81.46-2.71-.41s-1.17-2-.6-2.68 1.82-.46 2.73.4 1.19 2.06.58 2.69zm7.83 3.39c-.25.83-1.44 1.2-2.63.85s-2-1.32-1.72-2.16 1.43-1.22 2.63-.84 2 1.32 1.72 2.15zm8.61.63c0 .87-1 1.59-2.23 1.6s-2.28-.67-2.29-1.52 1-1.59 2.24-1.61 2.28.67 2.28 1.53zm8.01-1.36c.14.85-.72 1.71-2 1.95s-2.35-.3-2.5-1.14.73-1.74 2-2 2.36.29 2.52 1.15zm0 0"/></g></svg>