<svg xmlns="http://www.w3.org/2000/svg" viewBox="0 0 300 300"><path d="M188.09 153.07c0-13.25 15.54-26.55 46.22-45.62-.21-.39-.43-.77-.65-1.15-23.58 12.62-40.4 19.73-52.3 19.73-19.76 0-25.26-19.57-26.74-65.35h-1.3c-1.47 45.78-7 65.35-26.74 65.35-11.9 0-28.72-7.11-52.3-19.73-.22.38-.44.76-.65 1.15 30.69 19.08 46.24 32.38 46.24 45.62s-15.55 26.56-46.24 45.64c.21.38.43.76.65 1.13 23.58-12.63 40.41-19.72 52.31-19.72 19.76 0 25.26 19.55 26.73 65.34h1.3c1.47-45.79 7-65.34 26.73-65.34 11.79 0 29.08 7.34 52.3 19.74.23-.39.44-.77.66-1.15-30.68-19.08-46.22-32.39-46.22-45.64z" fill="#fff"/></svg>